<svg id="visual" viewBox="0 0 900 600" width="900" height="600" xmlns="http://www.w3.org/2000/svg" xmlns:xlink="http://www.w3.org/1999/xlink" version="1.1"><path d="M0 514L15 510.2C30 506.3 60 498.7 90 494.2C120 489.7 150 488.3 180 486.7C210 485 240 483 270 487.2C300 491.3 330 501.7 360 499.5C390 497.3 420 482.7 450 478.8C480 475 510 482 540 481.2C570 480.3 600 471.7 630 473C660 474.3 690 485.7 720 493C750 500.3 780 503.7 810 504.7C840 505.7 870 504.3 885 503.7L900 503L900 601L885 601C870 601 840 601 810 601C780 601 750 601 720 601C690 601 660 601 630 601C600 601 570 601 540 601C510 601 480 601 450 601C420 601 390 601 360 601C330 601 300 601 270 601C240 601 210 601 180 601C150 601 120 601 90 601C60 601 30 601 15 601L0 601Z" fill="#80d7ff"></path><path d="M0 502L15 505C30 508 60 514 90 518.2C120 522.3 150 524.7 180 519.3C210 514 240 501 270 496.2C300 491.3 330 494.7 360 498.8C390 503 420 508 450 513.5C480 519 510 525 540 519.7C570 514.3 600 497.7 630 495.7C660 493.7 690 506.3 720 510.8C750 515.3 780 511.7 810 512.5C840 513.3 870 518.7 885 521.3L900 524L900 601L885 601C870 601 840 601 810 601C780 601 750 601 720 601C690 601 660 601 630 601C600 601 570 601 540 601C510 601 480 601 450 601C420 601 390 601 360 601C330 601 300 601 270 601C240 601 210 601 180 601C150 601 120 601 90 601C60 601 30 601 15 601L0 601Z" fill="#57baf4"></path><path d="M0 529L15 525.2C30 521.3 60 513.7 90 513.5C120 513.3 150 520.7 180 525.2C210 529.7 240 531.3 270 527.8C300 524.3 330 515.7 360 511.2C390 506.7 420 506.3 450 508.5C480 510.7 510 515.3 540 519C570 522.7 600 525.3 630 525.7C660 526 690 524 720 527.2C750 530.3 780 538.7 810 538.2C840 537.7 870 528.3 885 523.7L900 519L900 601L885 601C870 601 840 601 810 601C780 601 750 601 720 601C690 601 660 601 630 601C600 601 570 601 540 601C510 601 480 601 450 601C420 601 390 601 360 601C330 601 300 601 270 601C240 601 210 601 180 601C150 601 120 601 90 601C60 601 30 601 15 601L0 601Z" fill="#379ce8"></path><path d="M0 562L15 561.8C30 561.7 60 561.3 90 561C120 560.7 150 560.3 180 557.7C210 555 240 550 270 545.3C300 540.7 330 536.3 360 535C390 533.7 420 535.3 450 536.8C480 538.3 510 539.7 540 539.5C570 539.3 600 537.7 630 536.5C660 535.3 690 534.7 720 534.2C750 533.7 780 533.3 810 534.2C840 535 870 537 885 538L900 539L900 601L885 601C870 601 840 601 810 601C780 601 750 601 720 601C690 601 660 601 630 601C600 601 570 601 540 601C510 601 480 601 450 601C420 601 390 601 360 601C330 601 300 601 270 601C240 601 210 601 180 601C150 601 120 601 90 601C60 601 30 601 15 601L0 601Z" fill="#2b7dd8"></path><path d="M0 581L15 577.7C30 574.3 60 567.7 90 564.5C120 561.3 150 561.7 180 562.2C210 562.7 240 563.3 270 562.7C300 562 330 560 360 563.3C390 566.7 420 575.3 450 576.8C480 578.3 510 572.7 540 568.7C570 564.7 600 562.3 630 564.2C660 566 690 572 720 571.2C750 570.3 780 562.7 810 562.3C840 562 870 569 885 572.5L900 576L900 601L885 601C870 601 840 601 810 601C780 601 750 601 720 601C690 601 660 601 630 601C600 601 570 601 540 601C510 601 480 601 450 601C420 601 390 601 360 601C330 601 300 601 270 601C240 601 210 601 180 601C150 601 120 601 90 601C60 601 30 601 15 601L0 601Z" fill="#375dc3"></path></svg>