<svg id="visual" viewBox="0 0 960 540" width="960" height="540" xmlns="http://www.w3.org/2000/svg" xmlns:xlink="http://www.w3.org/1999/xlink" version="1.1"><rect x="0" y="0" width="960" height="540" fill="#001220"></rect><path d="M0 403L22.8 392.8C45.7 382.7 91.3 362.3 137 358.7C182.7 355 228.3 368 274 376.2C319.7 384.3 365.3 387.7 411.2 378.3C457 369 503 347 548.8 336C594.7 325 640.3 325 686 337C731.7 349 777.3 373 823 380.5C868.7 388 914.3 379 937.2 374.5L960 370L960 541L937.2 541C914.3 541 868.7 541 823 541C777.3 541 731.7 541 686 541C640.3 541 594.7 541 548.8 541C503 541 457 541 411.2 541C365.3 541 319.7 541 274 541C228.3 541 182.7 541 137 541C91.3 541 45.7 541 22.8 541L0 541Z" fill="#80d7ff"></path><path d="M0 378L22.8 376.2C45.7 374.3 91.3 370.7 137 377.5C182.7 384.3 228.3 401.7 274 400.5C319.7 399.3 365.3 379.7 411.2 368.7C457 357.7 503 355.3 548.8 364C594.7 372.7 640.3 392.3 686 397.5C731.7 402.7 777.3 393.3 823 395.5C868.7 397.7 914.3 411.3 937.2 418.2L960 425L960 541L937.2 541C914.3 541 868.7 541 823 541C777.3 541 731.7 541 686 541C640.3 541 594.7 541 548.8 541C503 541 457 541 411.2 541C365.3 541 319.7 541 274 541C228.3 541 182.7 541 137 541C91.3 541 45.7 541 22.8 541L0 541Z" fill="#57baf4"></path><path d="M0 432L22.8 426.5C45.7 421 91.3 410 137 407C182.7 404 228.3 409 274 408C319.7 407 365.3 400 411.2 406.8C457 413.7 503 434.3 548.8 435.7C594.7 437 640.3 419 686 414.7C731.7 410.3 777.3 419.7 823 419.5C868.7 419.3 914.3 409.7 937.2 404.8L960 400L960 541L937.2 541C914.3 541 868.7 541 823 541C777.3 541 731.7 541 686 541C640.3 541 594.7 541 548.8 541C503 541 457 541 411.2 541C365.3 541 319.7 541 274 541C228.3 541 182.7 541 137 541C91.3 541 45.7 541 22.8 541L0 541Z" fill="#379ce8"></path><path d="M0 464L22.8 463.3C45.7 462.7 91.3 461.3 137 462.2C182.7 463 228.3 466 274 468.2C319.7 470.3 365.3 471.7 411.2 472.5C457 473.3 503 473.7 548.8 474.3C594.7 475 640.3 476 686 470.8C731.7 465.7 777.3 454.3 823 455.7C868.7 457 914.3 471 937.2 478L960 485L960 541L937.2 541C914.3 541 868.7 541 823 541C777.3 541 731.7 541 686 541C640.3 541 594.7 541 548.8 541C503 541 457 541 411.2 541C365.3 541 319.7 541 274 541C228.3 541 182.7 541 137 541C91.3 541 45.7 541 22.8 541L0 541Z" fill="#2b7dd8"></path><path d="M0 497L22.8 499.5C45.7 502 91.3 507 137 503.5C182.7 500 228.3 488 274 485.7C319.7 483.3 365.3 490.7 411.2 490.8C457 491 503 484 548.8 483.2C594.7 482.3 640.3 487.7 686 487.7C731.7 487.7 777.3 482.3 823 485C868.7 487.7 914.3 498.3 937.2 503.7L960 509L960 541L937.2 541C914.3 541 868.7 541 823 541C777.3 541 731.7 541 686 541C640.3 541 594.7 541 548.8 541C503 541 457 541 411.2 541C365.3 541 319.7 541 274 541C228.3 541 182.7 541 137 541C91.3 541 45.7 541 22.8 541L0 541Z" fill="#375dc3"></path></svg>